<?xml version="1.0" standalone="no"?>
<!DOCTYPE svg PUBLIC "-//W3C//DTD SVG 20010904//EN"
 "http://www.w3.org/TR/2001/REC-SVG-20010904/DTD/svg10.dtd">
<svg version="1.0" xmlns="http://www.w3.org/2000/svg"
 width="200.000000pt" height="100.000000pt" viewBox="0 0 200.000000 100.000000"
 preserveAspectRatio="xMidYMid meet">

<g transform="translate(0.000000,100.000000) scale(0.100000,-0.100000)"
fill="#000000" stroke="none">
<path d="M310 396 c0 -19 -4 -22 -23 -19 -31 6 -49 -18 -45 -59 3 -31 5 -33
46 -34 l42 -2 0 69 c0 39 -4 69 -10 69 -5 0 -10 -11 -10 -24z m-6 -51 c8 -21
-3 -45 -20 -45 -18 0 -28 24 -20 45 3 8 12 15 20 15 7 0 16 -7 20 -15z"/>
<path d="M427 413 c-4 -3 -7 -14 -7 -23 0 -13 -6 -16 -25 -12 -20 3 -27 -1
-35 -22 -6 -16 -6 -35 0 -50 8 -21 16 -25 50 -24 l40 0 0 69 c0 64 -6 80 -23
62z m-9 -86 c2 -19 -1 -27 -13 -27 -19 0 -30 24 -21 46 9 23 31 11 34 -19z"/>
<path d="M1090 396 c0 -19 -4 -23 -20 -19 -28 7 -50 -14 -50 -47 0 -35 17 -49
58 -48 l32 1 0 69 c0 39 -4 68 -10 68 -5 0 -10 -11 -10 -24z m-2 -64 c2 -13
-3 -25 -13 -28 -23 -9 -38 10 -30 36 9 27 39 22 43 -8z"/>
<path d="M1140 405 c0 -9 5 -15 11 -13 6 2 11 8 11 13 0 5 -5 11 -11 13 -6 2
-11 -4 -11 -13z"/>
<path d="M145 401 c-3 -6 -14 -35 -25 -66 -15 -43 -16 -55 -6 -55 8 0 16 7 20
15 7 20 46 19 62 -2 23 -32 26 -5 7 54 -19 55 -43 78 -58 54z m34 -63 c1 -5
-6 -8 -14 -8 -16 0 -19 9 -8 36 6 16 7 16 14 -2 4 -10 8 -22 8 -26z"/>
<path d="M670 345 c0 -51 3 -65 15 -65 10 0 15 10 15 31 0 27 3 30 28 27 21
-2 28 -9 30 -30 6 -54 22 -27 22 37 0 62 -15 91 -22 43 -2 -17 -11 -24 -30
-26 -24 -3 -28 0 -28 22 0 16 -6 26 -15 26 -12 0 -15 -14 -15 -65z"/>
<path d="M1345 381 c-27 -5 -30 -11 -32 -46 -2 -22 -4 -51 -5 -65 -3 -23 0
-25 37 -25 36 0 40 3 40 25 0 20 -6 26 -30 30 l-30 6 28 7 c17 5 27 14 27 26
0 11 3 26 6 35 7 17 6 17 -41 7z m15 -37 c0 -17 -22 -14 -28 4 -2 7 3 12 12
12 9 0 16 -7 16 -16z m10 -74 c0 -5 -12 -10 -26 -10 -14 0 -23 4 -19 10 3 6
15 10 26 10 10 0 19 -4 19 -10z"/>
<path d="M527 373 c-15 -14 -6 -23 18 -17 15 4 25 2 25 -5 0 -6 -6 -11 -13
-11 -24 0 -48 -25 -42 -42 5 -12 19 -16 50 -16 44 1 44 1 38 32 -9 48 -22 66
-47 66 -12 0 -26 -3 -29 -7z m43 -58 c0 -8 -7 -15 -15 -15 -26 0 -18 20 13 29
1 1 2 -6 2 -14z"/>
<path d="M822 368 c-17 -17 -15 -63 2 -78 18 -14 58 -10 64 8 3 9 -3 11 -21 7
-14 -4 -28 -2 -31 4 -5 7 4 11 23 11 36 0 46 13 31 40 -12 22 -49 27 -68 8z
m48 -18 c0 -5 -9 -10 -21 -10 -11 0 -17 5 -14 10 3 6 13 10 21 10 8 0 14 -4
14 -10z"/>
<path d="M927 374 c-15 -15 -6 -24 18 -18 15 4 25 2 25 -5 0 -6 -6 -11 -13
-11 -24 0 -48 -25 -42 -42 5 -12 19 -16 51 -16 24 1 44 5 44 10 0 4 -4 8 -9 8
-6 0 -11 17 -13 38 -3 31 -7 37 -28 40 -14 2 -29 0 -33 -4z m43 -59 c0 -8 -7
-15 -15 -15 -26 0 -18 20 13 29 1 1 2 -6 2 -14z"/>
<path d="M1140 330 c0 -38 4 -50 15 -50 11 0 15 12 15 50 0 38 -4 50 -15 50
-11 0 -15 -12 -15 -50z"/>
<path d="M1196 372 c-3 -3 -6 -25 -6 -49 0 -56 27 -61 32 -5 2 25 8 37 18 37
10 0 16 -12 18 -37 5 -56 24 -46 20 10 -3 47 -3 47 -40 48 -20 1 -39 -1 -42
-4z"/>
</g>
</svg>
